<svg xmlns="http://www.w3.org/2000/svg" viewBox="0 0 18 17"><title>icon1817-download</title><g id="Layer_2" data-name="Layer 2"><g id="_1" data-name="1"><path d="M16.962,11.56H11.4l-.855.84A2.149,2.149,0,0,1,9,13.033a2.185,2.185,0,0,1-1.592-.679L6.6,11.56H1.039A1.03,1.03,0,0,0,0,12.58v3.4A1.03,1.03,0,0,0,1.039,17H16.962A1.03,1.03,0,0,0,18,15.98v-3.4A1.03,1.03,0,0,0,16.962,11.56Zm-3.808,4.08a.68.68,0,1,1,.692-.68A.69.69,0,0,1,13.154,15.64Zm2.769,0a.68.68,0,1,1,.692-.68A.691.691,0,0,1,15.923,15.64ZM4.154,5.44H6.923V.68A.691.691,0,0,1,7.615,0h2.77a.691.691,0,0,1,.692.68V5.44h2.769a.692.692,0,0,1,.638.425.646.646,0,0,1-.151.733l-4.847,4.76a.687.687,0,0,1-.973,0L3.667,6.6a.644.644,0,0,1-.151-.733A.692.692,0,0,1,4.154,5.44Z" style="fill:#f4b936"/></g></g></svg>