<svg xmlns="http://www.w3.org/2000/svg" viewBox="0 0 20 20"><title>icon20-vote-yes-g</title><g id="Layer_2" data-name="Layer 2"><g id="_1" data-name="1"><path d="M5.2,17.5a.823.823,0,0,1-.8.833H.8A.822.822,0,0,1,0,17.5V9.167a.823.823,0,0,1,.8-.834H4.4a.824.824,0,0,1,.8.834ZM2.4,15a.834.834,0,0,0,0,1.667A.834.834,0,0,0,2.4,15Zm16.912-3.893a3.562,3.562,0,0,1,.188.989,2.83,2.83,0,0,1-.537,1.784,2.876,2.876,0,0,1,0,1.524,2.7,2.7,0,0,1-.676,1.224,3.236,3.236,0,0,1-.612,2.356A3.036,3.036,0,0,1,15.213,20H13.6a14.465,14.465,0,0,1-4.825-1.094A8.413,8.413,0,0,0,6.8,18.333.84.84,0,0,1,6,17.5V9.154a.856.856,0,0,1,.763-.834c.462-.039,1.662-1.588,2.212-2.343a18.227,18.227,0,0,1,1.262-1.563,4.017,4.017,0,0,0,.775-2.044A3.9,3.9,0,0,1,11.838.247.777.777,0,0,1,12.4,0c2.8,0,2.8,2.331,2.8,3.333a5.272,5.272,0,0,1-.7,2.5,3.173,3.173,0,0,0-.363.834H17.6a2.486,2.486,0,0,1,2.4,2.5A3.147,3.147,0,0,1,19.312,11.107Z" style="fill:#cdcdcd"/></g></g></svg>