<svg xmlns="http://www.w3.org/2000/svg" viewBox="0 0 20 20"><title>icon20-vote-no</title><g id="Layer_2" data-name="Layer 2"><g id="_1" data-name="1"><path d="M5.2,10.833a.824.824,0,0,1-.8.834H.8a.823.823,0,0,1-.8-.834V2.5a.822.822,0,0,1,.8-.833H4.4a.823.823,0,0,1,.8.833Zm-2-6.666a.815.815,0,0,0-.8-.834.807.807,0,0,0-.8.834A.815.815,0,0,0,2.4,5,.823.823,0,0,0,3.2,4.167ZM20,10.833a2.485,2.485,0,0,1-2.4,2.5H14.137a3.173,3.173,0,0,0,.363.834,5.272,5.272,0,0,1,.7,2.5c0,1,0,3.333-2.8,3.333a.777.777,0,0,1-.562-.247,3.9,3.9,0,0,1-.826-2.123,4.017,4.017,0,0,0-.775-2.044,18.227,18.227,0,0,1-1.262-1.563c-.55-.755-1.75-2.3-2.212-2.343A.856.856,0,0,1,6,10.846V2.5a.84.84,0,0,1,.8-.833,8.413,8.413,0,0,0,1.975-.573A14.465,14.465,0,0,1,13.6,0h1.613a3.036,3.036,0,0,1,2.462,1.016,3.236,3.236,0,0,1,.612,2.356A2.7,2.7,0,0,1,18.963,4.6a2.876,2.876,0,0,1,0,1.524A2.83,2.83,0,0,1,19.5,7.9a3.562,3.562,0,0,1-.188.989A3.147,3.147,0,0,1,20,10.833Z" style="fill:#ff3354"/></g></g></svg>