<svg xmlns="http://www.w3.org/2000/svg" viewBox="0 0 14 14"><title>icon14-calendar</title><g id="Layer_2" data-name="Layer 2"><g id="_1" data-name="1"><path d="M13.562,2.133A1.551,1.551,0,0,0,12.5,1.75H11V.328A.3.3,0,0,0,10.891.1a.39.39,0,0,0-.266-.1H9.375A.386.386,0,0,0,9.11.1.3.3,0,0,0,9,.328V1.75H5V.328A.3.3,0,0,0,4.891.1.39.39,0,0,0,4.625,0H3.375A.386.386,0,0,0,3.11.1.3.3,0,0,0,3,.328V1.75H1.5a1.551,1.551,0,0,0-1.062.383A1.19,1.19,0,0,0,0,3.063v9.625a1.19,1.19,0,0,0,.438.929A1.551,1.551,0,0,0,1.5,14h11a1.551,1.551,0,0,0,1.062-.383A1.19,1.19,0,0,0,14,12.688V3.063A1.19,1.19,0,0,0,13.562,2.133Z" style="fill:#f4b936"/></g></g></svg>