<svg xmlns="http://www.w3.org/2000/svg" viewBox="0 0 14 14"><title>icon14-clock</title><g id="Layer_2" data-name="Layer 2"><g id="Layer_1-2" data-name="Layer 1"><path d="M7,0a6.78,6.78,0,0,1,3.5.946A7.059,7.059,0,0,1,13.054,3.5,6.78,6.78,0,0,1,14,7a6.78,6.78,0,0,1-.946,3.5A7.059,7.059,0,0,1,10.5,13.054,6.78,6.78,0,0,1,7,14a6.78,6.78,0,0,1-3.5-.946A7.059,7.059,0,0,1,.946,10.5,6.78,6.78,0,0,1,0,7,6.78,6.78,0,0,1,.946,3.5,7.059,7.059,0,0,1,3.5.946,6.78,6.78,0,0,1,7,0ZM7,12.5a5.337,5.337,0,0,0,2.75-.743A5.549,5.549,0,0,0,11.757,9.75a5.461,5.461,0,0,0,0-5.5A5.549,5.549,0,0,0,9.75,2.243a5.461,5.461,0,0,0-5.5,0A5.549,5.549,0,0,0,2.243,4.25a5.461,5.461,0,0,0,0,5.5A5.549,5.549,0,0,0,4.25,11.757,5.337,5.337,0,0,0,7,12.5ZM8.75,9.71A.306.306,0,0,0,9,9.766a.365.365,0,0,0,.226-.141l.508-.734a.35.35,0,0,0,.07-.254.307.307,0,0,0-.127-.226L7.79,7.056V3.048a.335.335,0,0,0-.338-.338h-.9a.335.335,0,0,0-.338.338V7.677a.349.349,0,0,0,.141.283Z" style="fill:#f4b936"/></g></g></svg>